<svg width="115" height="38" viewBox="0 0 115 38" fill="none" xmlns="http://www.w3.org/2000/svg">
<path d="M46.4659 28.2386C50.0966 28.2386 52.4318 26.5 52.875 23.7727H48.5795C48.3068 24.5142 47.5312 24.9318 46.5682 24.9318C45.1705 24.9318 44.3523 24.0114 44.3523 22.75V22.5455H52.875V21.4545C52.875 17.2869 50.3182 14.7386 46.3636 14.7386C42.3068 14.7386 39.7159 17.4318 39.7159 21.4886C39.7159 25.7244 42.2727 28.2386 46.4659 28.2386ZM44.3523 19.9545C44.3778 18.821 45.3153 18.0455 46.4659 18.0455C47.6335 18.0455 48.5199 18.8295 48.5455 19.9545H44.3523ZM61.1793 20.6364C61.1878 19.3409 61.9208 18.5568 63.0884 18.5568C64.273 18.5568 64.9719 19.3409 64.9634 20.6364V28H69.6679V19.6477C69.6764 16.8011 67.8782 14.7386 65.0997 14.7386C63.1736 14.7386 61.648 15.7443 61.077 17.3977H60.9407V14.9091H56.4747V28H61.1793V20.6364ZM81.5113 14.9091H79.1249V14.3295C79.1249 13.7159 79.3636 13.3068 80.2499 13.3068C80.5908 13.3068 81.1022 13.375 81.4431 13.4773L82.1249 10.1023C81.5795 9.96591 80.3181 9.72727 79.1249 9.72727C76.2613 9.72727 74.4204 11.2955 74.4204 14.5341V14.9091H72.7499V18.3182H74.4204V28H79.1249V18.3182H81.5113V14.9091ZM87.8703 32.9091C91.16 32.9091 92.7026 31.2557 93.4271 29.0909L98.1998 14.9091H93.2566L91.1089 23.9773H90.9725L88.8589 14.9091H83.9498L88.5521 28.5795L88.4498 28.8182C88.1345 29.5426 87.2225 29.517 86.0634 29.108L85.0407 32.4489C85.7737 32.7386 86.7879 32.9091 87.8703 32.9091ZM113.184 19.1705C113.064 16.4006 110.763 14.7386 106.979 14.7386C103.238 14.7386 100.928 16.2727 100.945 19C100.928 21.0625 102.266 22.3835 104.934 22.8523L107.252 23.2614C108.275 23.4489 108.735 23.7216 108.752 24.2159C108.735 24.7614 108.113 25.0682 107.252 25.0682C106.187 25.0682 105.437 24.608 105.309 23.7727H100.638C100.894 26.4574 103.212 28.2386 107.218 28.2386C110.84 28.2386 113.508 26.4744 113.525 23.6705C113.508 21.7358 112.212 20.6108 109.536 20.125L106.877 19.6477C105.88 19.4688 105.599 19.1108 105.616 18.7273C105.599 18.1818 106.272 17.875 107.082 17.875C108.01 17.875 108.786 18.3693 108.854 19.1705H113.184Z" fill="#10B981"/>
<path d="M22.1849 25.3153C22.1806 25.22 22.1836 25.0829 22.2072 24.8931C22.3203 23.986 22.8058 22.6172 23.4779 21.2571C24.1501 19.8969 24.9393 18.6863 25.5777 18.056C25.6693 17.9656 25.7505 17.8945 25.8205 17.84C26.7234 20.9127 25.123 24.1461 22.1849 25.3153Z" stroke="#047857" stroke-width="1.76464"/>
<path d="M6.82278 24.6342C5.30666 19.7798 14.9674 21.1451 17.2932 17.0451C19.4244 13.2881 12.1134 7.57083 16.5617 6.18157M31.4264 15.9205C32.9705 20.8646 23.2195 14.7487 20.7892 18.8896C18.6468 22.5401 27.828 29.801 23.4695 31.1622" stroke="#065F46" stroke-width="1.76464"/>
<path d="M11.4722 22.2095C10.0195 17.5582 12.6125 12.6099 17.2638 11.1572M11.4048 21.9835C12.8575 26.6349 21.6466 9.79305 16.9953 11.2457" stroke="#047857" stroke-width="1.76464"/>
<path d="M22.7863 28.8428C22.5794 28.9074 22.4647 28.9105 22.4163 28.9067C22.3957 28.8626 22.362 28.761 22.3489 28.5699C22.3338 28.349 22.3499 28.0596 22.4068 27.7016C22.6383 26.2436 23.467 24.1076 24.559 22.0237C25.651 19.9399 26.9357 18.0428 28.0028 17.0227C28.2648 16.7722 28.4936 16.5942 28.6838 16.4809C28.8484 16.3829 28.9511 16.3528 28.9991 16.3446C29.0297 16.3823 29.0925 16.4783 29.1571 16.6852C30.7551 21.8017 27.9027 27.2448 22.7863 28.8428Z" stroke="#059669" stroke-width="1.76464"/>
<path d="M8.94559 22.9986C7.0571 16.9519 10.428 10.5191 16.4748 8.6306C16.7951 8.53057 16.9567 8.54388 17.0133 8.55724L17.0154 8.55774C17.0389 8.56328 17.0439 8.56444 17.0638 8.59706C17.1004 8.65687 17.1565 8.80018 17.1756 9.07928C17.1942 9.35153 17.174 9.70089 17.1066 10.1255C16.8328 11.8497 15.8574 14.3583 14.5807 16.7948C13.3039 19.2312 11.7963 21.4609 10.5343 22.6674C10.2236 22.9645 9.9478 23.1799 9.71336 23.3195C9.47302 23.4627 9.32327 23.4981 9.25325 23.5021C9.21507 23.5042 9.21132 23.5008 9.19337 23.4846L9.19175 23.4832C9.14856 23.4443 9.04562 23.3189 8.94559 22.9986Z" stroke="#059669" stroke-width="1.76464"/>
<path d="M23.8397 32.2122C23.4612 32.3304 23.2521 32.3207 23.1577 32.2984C23.0944 32.2835 23.0616 32.2617 23.0214 32.196C22.9651 32.1041 22.898 31.9181 22.8754 31.5877C22.8533 31.2641 22.8775 30.8549 22.9555 30.3637C23.2716 28.3732 24.3936 25.492 25.8551 22.7029C27.3167 19.9138 29.0472 17.3515 30.504 15.9587C30.8635 15.6151 31.1863 15.3623 31.4649 15.1963C31.7494 15.0268 31.9406 14.9761 32.0482 14.9701C32.125 14.9658 32.1616 14.9804 32.2099 15.0239C32.282 15.0888 32.409 15.2553 32.5272 15.6337C34.7062 22.6107 30.8167 30.0332 23.8397 32.2122Z" stroke="#10B981" stroke-width="1.76464"/>
<path d="M5.57678 24.0508C3.10721 16.1435 7.51535 7.73144 15.4226 5.26187C15.8592 5.12552 16.1158 5.13159 16.2481 5.16285C16.3492 5.18673 16.4103 5.22999 16.4701 5.32777C16.5461 5.45179 16.6243 5.68047 16.6503 6.06219C16.6759 6.43706 16.6477 6.90628 16.5591 7.46399C16.2007 9.72082 14.9321 12.9747 13.2858 16.1163C11.6395 19.258 9.68599 22.1529 8.03428 23.732C7.62611 24.1223 7.25636 24.4125 6.93355 24.6048C6.60485 24.8006 6.37231 24.8665 6.22713 24.8746C6.11267 24.8811 6.04234 24.8555 5.96516 24.7859C5.86417 24.6949 5.71313 24.4874 5.57678 24.0508Z" stroke="#10B981" stroke-width="1.76464"/>
</svg>
